<svg width="24" height="25" viewBox="0 0 24 25" fill="none" xmlns="http://www.w3.org/2000/svg">
<mask id="path-1-inside-1_47338_365" fill="white">
<path d="M14.75 7.31836L14.2806 8.20136C14.7343 8.44256 15.297 8.30061 15.5821 7.87306L14.75 7.31836ZM17.25 3.56836L18.0821 4.12306C18.354 3.71516 18.2901 3.17027 17.9312 2.8363L17.25 3.56836ZM22 10.5683L22.9978 10.5018C22.9628 9.97651 22.5265 9.56831 22 9.56831L22 10.5683ZM12 10.5685V9.56846C11.7348 9.56846 11.4804 9.67381 11.2929 9.86136C11.1054 10.0489 11 10.3033 11 10.5685H12ZM12 14.0686H11C11 14.6209 11.4477 15.0686 12 15.0686V14.0686ZM16.75 14.0686H17.75C17.75 13.5163 17.3023 13.0686 16.75 13.0686V14.0686ZM19.75 18.3184L18.9596 17.7058L19.75 18.3184ZM15.5821 7.87306L18.0821 4.12306L16.4179 3.01366L13.9179 6.76366L15.5821 7.87306ZM17.25 3.56836C17.9312 2.8363 17.9308 2.83587 17.9303 2.83544C17.9301 2.83528 17.9296 2.83484 17.9293 2.83453C17.9287 2.83392 17.928 2.83328 17.9272 2.83262C17.9258 2.83131 17.9243 2.8299 17.9226 2.82841C17.9194 2.82542 17.9157 2.82207 17.9116 2.81839C17.9034 2.81102 17.8934 2.80229 17.8817 2.79229C17.8584 2.77229 17.8281 2.74722 17.7908 2.71784C17.7161 2.65908 17.6129 2.58316 17.4795 2.4962C17.2124 2.32213 16.8253 2.10466 16.3041 1.8923C15.2592 1.46647 13.6931 1.06836 11.5 1.06836V3.06836C13.4451 3.06836 14.754 3.42025 15.5494 3.74442C15.9486 3.90706 16.2231 4.06459 16.3875 4.17176C16.4698 4.22543 16.5249 4.26669 16.5545 4.28996C16.5693 4.30161 16.5777 4.30876 16.58 4.31073C16.5812 4.31172 16.5808 4.31141 16.579 4.30972C16.578 4.30887 16.5766 4.30768 16.5749 4.30613C16.5741 4.30536 16.5731 4.3045 16.5721 4.30354C16.5716 4.30307 16.5711 4.30257 16.5705 4.30205C16.5702 4.30178 16.5698 4.30138 16.5697 4.30125C16.5692 4.30083 16.5688 4.30041 17.25 3.56836ZM11.5 1.06836C9.15325 1.06836 6.5449 2.11909 4.52583 3.95315C2.48885 5.80346 1 8.49906 1 11.8183H3C3 9.13766 4.19209 6.95826 5.8706 5.43356C7.56695 3.89263 9.7086 3.06836 11.5 3.06836V1.06836ZM1 11.8183C1 18.6687 6.49665 23.0685 12 23.0685V21.0685C7.50335 21.0685 3 17.4687 3 11.8183H1ZM22 10.5683C22 9.56831 22 9.56831 21.9999 9.56831C21.9999 9.56831 21.9997 9.56831 21.9996 9.56831C21.9994 9.56831 21.9992 9.56831 21.9988 9.56831C21.998 9.56831 21.9968 9.56831 21.9953 9.56831C21.9921 9.56831 21.9874 9.56831 21.9812 9.56831C21.9688 9.56831 21.9503 9.56831 21.9261 9.56831C21.8776 9.56831 21.8061 9.56831 21.7139 9.56831C21.5292 9.56836 21.2617 9.56836 20.9296 9.56836C20.2656 9.56836 19.3438 9.56841 18.3125 9.56841C16.25 9.56846 13.75 9.56851 12 9.56846V11.5685C13.75 11.5685 16.25 11.5685 18.3125 11.5684C19.3438 11.5684 20.2657 11.5684 20.9297 11.5684C21.2618 11.5684 21.5294 11.5684 21.7139 11.5683C21.8062 11.5683 21.8777 11.5683 21.9262 11.5683C21.9504 11.5683 21.9689 11.5683 21.9813 11.5683C21.9875 11.5683 21.9921 11.5683 21.9953 11.5683C21.9969 11.5683 21.9981 11.5683 21.9988 11.5683C21.9993 11.5683 21.9995 11.5683 21.9998 11.5683C21.9998 11.5683 21.9999 11.5683 22 11.5683C22 11.5683 22 11.5683 22 10.5683ZM11 10.5685V14.0686H13V10.5685H11ZM12 15.0686H16.75V13.0686H12V15.0686ZM15.75 14.0686C15.75 14.4171 15.4892 15.0346 14.7905 15.6082C14.1241 16.1553 13.1587 16.5687 12 16.5687V18.5687C13.6413 18.5687 15.051 17.982 16.0595 17.1541C17.0358 16.3526 17.75 15.2201 17.75 14.0686H15.75ZM12 16.5687C9.1914 16.5687 7.5 14.1663 7.5 11.8183H5.5C5.5 14.9704 7.8086 18.5687 12 18.5687V16.5687ZM7.5 11.8183C7.5 9.65031 9.5221 7.56831 12 7.56831V5.56831C8.4779 5.56831 5.5 8.48636 5.5 11.8183H7.5ZM12 7.56831C13.0001 7.56831 13.8226 7.95786 14.2806 8.20136L15.2194 6.43536C14.6774 6.14721 13.4999 5.56831 12 5.56831V7.56831ZM12 23.0685C14.8363 23.0685 18.2299 21.9122 20.5404 18.9309L18.9596 17.7058C17.0943 20.1127 14.3349 21.0685 12 21.0685V23.0685ZM20.5404 18.9309C22.059 16.9715 23.2667 14.5356 22.9978 10.5018L21.0022 10.6349C21.2333 14.1014 20.2307 16.0656 18.9596 17.7058L20.5404 18.9309Z"/>
</mask>
<path d="M14.75 7.31836L14.2806 8.20136C14.7343 8.44256 15.297 8.30061 15.5821 7.87306L14.75 7.31836ZM17.25 3.56836L18.0821 4.12306C18.354 3.71516 18.2901 3.17027 17.9312 2.8363L17.25 3.56836ZM22 10.5683L22.9978 10.5018C22.9628 9.97651 22.5265 9.56831 22 9.56831L22 10.5683ZM12 10.5685V9.56846C11.7348 9.56846 11.4804 9.67381 11.2929 9.86136C11.1054 10.0489 11 10.3033 11 10.5685H12ZM12 14.0686H11C11 14.6209 11.4477 15.0686 12 15.0686V14.0686ZM16.75 14.0686H17.75C17.75 13.5163 17.3023 13.0686 16.75 13.0686V14.0686ZM19.75 18.3184L18.9596 17.7058L19.75 18.3184ZM15.5821 7.87306L18.0821 4.12306L16.4179 3.01366L13.9179 6.76366L15.5821 7.87306ZM17.25 3.56836C17.9312 2.8363 17.9308 2.83587 17.9303 2.83544C17.9301 2.83528 17.9296 2.83484 17.9293 2.83453C17.9287 2.83392 17.928 2.83328 17.9272 2.83262C17.9258 2.83131 17.9243 2.8299 17.9226 2.82841C17.9194 2.82542 17.9157 2.82207 17.9116 2.81839C17.9034 2.81102 17.8934 2.80229 17.8817 2.79229C17.8584 2.77229 17.8281 2.74722 17.7908 2.71784C17.7161 2.65908 17.6129 2.58316 17.4795 2.4962C17.2124 2.32213 16.8253 2.10466 16.3041 1.8923C15.2592 1.46647 13.6931 1.06836 11.5 1.06836V3.06836C13.4451 3.06836 14.754 3.42025 15.5494 3.74442C15.9486 3.90706 16.2231 4.06459 16.3875 4.17176C16.4698 4.22543 16.5249 4.26669 16.5545 4.28996C16.5693 4.30161 16.5777 4.30876 16.58 4.31073C16.5812 4.31172 16.5808 4.31141 16.579 4.30972C16.578 4.30887 16.5766 4.30768 16.5749 4.30613C16.5741 4.30536 16.5731 4.3045 16.5721 4.30354C16.5716 4.30307 16.5711 4.30257 16.5705 4.30205C16.5702 4.30178 16.5698 4.30138 16.5697 4.30125C16.5692 4.30083 16.5688 4.30041 17.25 3.56836ZM11.5 1.06836C9.15325 1.06836 6.5449 2.11909 4.52583 3.95315C2.48885 5.80346 1 8.49906 1 11.8183H3C3 9.13766 4.19209 6.95826 5.8706 5.43356C7.56695 3.89263 9.7086 3.06836 11.5 3.06836V1.06836ZM1 11.8183C1 18.6687 6.49665 23.0685 12 23.0685V21.0685C7.50335 21.0685 3 17.4687 3 11.8183H1ZM22 10.5683C22 9.56831 22 9.56831 21.9999 9.56831C21.9999 9.56831 21.9997 9.56831 21.9996 9.56831C21.9994 9.56831 21.9992 9.56831 21.9988 9.56831C21.998 9.56831 21.9968 9.56831 21.9953 9.56831C21.9921 9.56831 21.9874 9.56831 21.9812 9.56831C21.9688 9.56831 21.9503 9.56831 21.9261 9.56831C21.8776 9.56831 21.8061 9.56831 21.7139 9.56831C21.5292 9.56836 21.2617 9.56836 20.9296 9.56836C20.2656 9.56836 19.3438 9.56841 18.3125 9.56841C16.25 9.56846 13.75 9.56851 12 9.56846V11.5685C13.75 11.5685 16.25 11.5685 18.3125 11.5684C19.3438 11.5684 20.2657 11.5684 20.9297 11.5684C21.2618 11.5684 21.5294 11.5684 21.7139 11.5683C21.8062 11.5683 21.8777 11.5683 21.9262 11.5683C21.9504 11.5683 21.9689 11.5683 21.9813 11.5683C21.9875 11.5683 21.9921 11.5683 21.9953 11.5683C21.9969 11.5683 21.9981 11.5683 21.9988 11.5683C21.9993 11.5683 21.9995 11.5683 21.9998 11.5683C21.9998 11.5683 21.9999 11.5683 22 11.5683C22 11.5683 22 11.5683 22 10.5683ZM11 10.5685V14.0686H13V10.5685H11ZM12 15.0686H16.75V13.0686H12V15.0686ZM15.75 14.0686C15.75 14.4171 15.4892 15.0346 14.7905 15.6082C14.1241 16.1553 13.1587 16.5687 12 16.5687V18.5687C13.6413 18.5687 15.051 17.982 16.0595 17.1541C17.0358 16.3526 17.75 15.2201 17.75 14.0686H15.75ZM12 16.5687C9.1914 16.5687 7.5 14.1663 7.5 11.8183H5.5C5.5 14.9704 7.8086 18.5687 12 18.5687V16.5687ZM7.5 11.8183C7.5 9.65031 9.5221 7.56831 12 7.56831V5.56831C8.4779 5.56831 5.5 8.48636 5.5 11.8183H7.5ZM12 7.56831C13.0001 7.56831 13.8226 7.95786 14.2806 8.20136L15.2194 6.43536C14.6774 6.14721 13.4999 5.56831 12 5.56831V7.56831ZM12 23.0685C14.8363 23.0685 18.2299 21.9122 20.5404 18.9309L18.9596 17.7058C17.0943 20.1127 14.3349 21.0685 12 21.0685V23.0685ZM20.5404 18.9309C22.059 16.9715 23.2667 14.5356 22.9978 10.5018L21.0022 10.6349C21.2333 14.1014 20.2307 16.0656 18.9596 17.7058L20.5404 18.9309Z" fill="#2F2F2F" stroke="#2F2F2F" mask="url(#path-1-inside-1_47338_365)"/>
</svg>
