<svg width="24" height="25" viewBox="0 0 24 25" fill="none" xmlns="http://www.w3.org/2000/svg">
<path d="M7.45203 13.2477C6.34409 10.9866 7.8519 6.58032 12.9239 7.30067C18.5104 8.0941 17.505 16.7779 12.8471 16.4388C11.3732 16.3314 10.8159 15.11 10.6704 13.8622M10.6704 13.8622C10.5601 12.9162 10.6865 11.955 10.8296 11.4526C11.0738 10.5954 11.4786 10.7119 11.1828 11.8457C11.0388 12.3976 10.8632 13.0902 10.6704 13.8622ZM10.6704 13.8622C10.156 15.9221 9.51993 18.5469 9.03959 20.5701M9.03959 20.5701C9.96672 20.8929 10.9629 21.0684 12 21.0684C16.9706 21.0684 21 17.0389 21 12.0684C21 7.0978 16.9706 3.06836 12 3.06836C7.02944 3.06836 3 7.0978 3 12.0684C3 16.0018 5.52335 19.3459 9.03959 20.5701Z" stroke="#2F2F2F" stroke-width="2" stroke-linecap="round" stroke-linejoin="round"/>
</svg>
