<svg xmlns="http://www.w3.org/2000/svg" version="1.1" xmlns:xlink="http://www.w3.org/1999/xlink" width="512" height="512" x="0" y="0" viewBox="0 0 512 512" style="enable-background:new 0 0 512 512" xml:space="preserve"><g><path d="M453.6 138.7c-26.4-38.7-63.1-68.6-106.3-86.5-4.4-1.8-9.4.3-11.2 4.6-1.8 4.4.3 9.4 4.6 11.2 83.2 34.4 137 114.9 137 205 0 122.3-99.5 221.8-221.8 221.8S34.2 395.4 34.2 273.1 133.7 51.3 256 51.3h3.9l-22.7 19.2c-3.6 3.1-4.1 8.5-1 12.1s8.5 4.1 12.1 1l40-33.8c4.1-3.5 4.1-10.5 0-14L248.2 2c-3.6-3.1-9-2.6-12.1 1s-2.6 9 1 12.1l22.6 19.1c-3 .6-95.8-6.9-172.7 70-93.4 93.4-93.4 244.5 0 337.9s244.5 93.4 337.9 0c83.3-83.3 91.6-211 28.7-303.4z" fill="#6a7184" opacity="1" data-original="#000000"></path></g></svg>
