<svg width="27" height="29" viewBox="0 0 27 29" fill="none" xmlns="http://www.w3.org/2000/svg">
<path d="M0.917208 19.9468C0.855347 19.7788 1.0702 19.6478 1.19126 19.7808C2.67658 21.417 7.39663 25.9158 13.6419 24.9273C16.5015 24.4751 19.1628 23.0788 20.7898 20.645C21.6665 19.334 22.3057 17.8469 22.1441 16.249C22.0443 15.264 21.747 14.2977 21.2701 13.4282C20.404 11.8478 18.8282 10.4252 17.1168 9.80569C17.1168 9.80569 14.9776 9.0316 14.2552 10.5247C13.5328 12.0178 14.8665 12.9847 15.394 13.1507C15.8363 13.2898 16.8653 13.1762 17.4148 12.3699C17.5172 12.22 17.7533 12.2812 17.7666 12.4619C17.8398 13.4242 17.7008 15.2667 15.8656 16.5232C13.2821 18.2925 10.9766 17.0487 10.3373 16.6616C8.16823 15.348 7.43321 12.1871 9.08151 10.1961C9.14071 10.1242 9.06621 10.0207 8.97907 10.0536C8.27066 10.3211 6.57847 11.1328 5.44768 13.0922C5.35722 13.2488 5.11842 13.197 5.09847 13.017C4.97341 11.8753 5.09115 9.14651 8.39172 6.70933C12.6927 3.53368 18.5183 5.79212 18.5316 5.79682C18.5442 5.80085 23.2297 7.24085 25.5325 12.2933C27.838 17.3524 24.0598 22.5217 22.3656 24.1526C20.6708 25.7834 17.1154 28.8246 11.3092 27.9948C5.96718 27.2328 2.01141 22.933 0.917208 19.9468Z" fill=""/>
<path d="M20.9141 15.4763C20.9999 15.3426 21.2054 15.3883 21.2254 15.5455C21.4043 16.9512 21.4362 21.2208 15.7277 23.2138C10.6179 24.9979 3.64626 22.7045 1.24966 17.6716C0.572514 16.2497 0.249242 14.6726 0.225961 13.1036C0.190707 10.6839 0.844568 8.59953 2.27535 6.66296C3.76799 4.64374 5.79011 3.05592 8.06033 1.98281C12.2602 -0.00213796 17.9048 0.861321 21.4602 3.78364C22.9774 5.03079 24.2858 6.71873 25.0641 8.51553C25.1386 8.68755 24.9224 8.83673 24.7887 8.70502C23.3386 7.27645 19.3077 3.80716 14.3661 3.80716C8.14348 3.80716 5.28192 8.39593 5.28192 8.39593C5.28192 8.39593 1.89288 13.3717 6.55971 17.4908C11.0822 21.4815 18.3671 19.4529 20.9141 15.4763Z" fill=""/>
</svg>
